<?xml version="1.0" standalone="no"?>
<!DOCTYPE svg PUBLIC "-//W3C//DTD SVG 20010904//EN"
 "http://www.w3.org/TR/2001/REC-SVG-20010904/DTD/svg10.dtd">
<svg version="1.0" xmlns="http://www.w3.org/2000/svg"
 width="1024.000000pt" height="1024.000000pt" viewBox="0 0 1024.000000 1024.000000"
 preserveAspectRatio="xMidYMid meet">
<metadata>
Created by potrace 1.14, written by Peter Selinger 2001-2017
</metadata>
<g transform="translate(0.000000,1024.000000) scale(0.100000,-0.100000)"
fill="#000000" stroke="none">
<path d="M4969 10236 c-2 -2 -33 -6 -69 -10 -36 -3 -76 -8 -90 -11 -14 -3 -42
-7 -62 -10 -20 -2 -47 -9 -60 -16 -13 -7 -23 -11 -23 -9 0 23 -423 -134 -433
-161 -2 -5 -9 -9 -15 -9 -25 0 -216 -125 -325 -212 -47 -39 -251 -247 -269
-275 -10 -16 -23 -32 -30 -36 -7 -4 -13 -14 -13 -22 0 -7 -4 -15 -9 -17 -21
-8 -202 -317 -201 -343 0 -3 -7 -20 -17 -38 -10 -17 -22 -48 -28 -67 l-11 -35
-132 -1 c-73 -1 -138 -4 -145 -7 -8 -3 -20 -1 -27 3 -8 5 -22 4 -31 -1 -11 -6
-20 -5 -24 1 -3 6 -15 6 -30 0 -15 -6 -27 -6 -30 0 -3 6 -15 6 -30 0 -15 -6
-27 -6 -30 0 -3 5 -15 6 -29 0 -12 -4 -29 -4 -36 0 -8 5 -22 4 -31 -1 -11 -6
-20 -5 -24 1 -3 6 -15 6 -30 0 -15 -6 -27 -6 -30 0 -3 6 -15 6 -30 0 -15 -6
-27 -6 -30 1 -4 5 -10 7 -15 4 -5 -3 -50 -7 -100 -10 -50 -2 -103 -6 -118 -10
-15 -3 -38 -8 -52 -11 -14 -3 -32 -6 -40 -6 -8 0 -21 -5 -27 -11 -7 -5 -13 -7
-13 -4 0 11 -174 -55 -255 -96 -130 -67 -251 -158 -347 -262 -58 -63 -164
-205 -181 -245 -7 -14 -14 -27 -17 -30 -6 -5 -71 -148 -75 -165 -1 -5 -5 -17
-8 -25 -5 -12 -27 -88 -32 -110 -30 -135 -30 -95 -30 -3505 0 -1848 4 -3373 8
-3390 5 -16 10 -43 13 -60 2 -16 7 -39 11 -50 4 -11 8 -26 9 -32 6 -35 48
-152 71 -197 94 -188 199 -325 334 -438 24 -21 50 -43 57 -49 28 -23 132 -89
141 -89 5 0 11 -3 13 -8 4 -10 157 -78 186 -83 4 0 12 -4 17 -9 6 -4 26 -11
45 -15 19 -4 39 -10 45 -13 5 -3 18 -7 30 -9 11 -1 58 -9 105 -17 74 -13 439
-15 2790 -13 2446 2 2711 4 2763 18 32 9 59 17 60 17 8 0 95 24 107 29 8 3 20
7 25 8 17 4 160 69 165 75 3 3 16 10 30 17 40 17 182 123 245 181 148 137 264
317 334 515 17 48 31 89 31 92 0 3 0 6 1 8 1 5 7 33 13 62 3 17 9 41 13 55 4
14 9 1530 10 3370 2 2903 0 3356 -13 3425 -18 99 -22 120 -24 120 -1 0 -3 11
-6 25 -2 14 -8 34 -13 45 -5 11 -15 38 -22 60 -6 22 -19 54 -27 70 -9 17 -17
32 -17 35 -1 5 -37 72 -73 135 -9 17 -19 32 -23 35 -3 3 -18 23 -34 45 -59 80
-189 212 -251 255 -115 80 -294 179 -294 163 0 -3 -6 0 -13 6 -15 12 -115 44
-192 61 -81 18 -134 24 -237 24 -54 1 -98 4 -98 8 0 4 -13 3 -30 -2 -16 -5
-30 -6 -30 -2 0 8 -205 6 -226 -2 -8 -3 -14 -2 -14 2 0 8 -204 6 -226 -2 -8
-3 -14 -2 -14 2 0 8 -74 6 -97 -2 -7 -3 -13 -1 -13 4 0 5 -7 7 -16 3 -20 -7
-25 1 -70 115 -20 50 -41 92 -45 92 -5 0 -9 7 -9 15 0 9 -8 27 -17 41 -29 44
-53 88 -59 107 -4 9 -11 17 -16 17 -5 0 -6 5 -3 10 3 6 2 10 -2 10 -5 0 -17
15 -28 33 -10 17 -24 37 -29 43 -6 6 -20 23 -31 39 -52 72 -213 242 -298 312
-58 49 -177 133 -186 133 -6 0 -11 4 -11 8 0 4 -19 18 -42 30 -24 12 -74 39
-113 60 -38 21 -73 39 -77 40 -4 1 -29 12 -55 23 -117 50 -321 108 -438 125
-27 3 -59 9 -70 11 -23 6 -381 13 -386 9z m286 -1289 c128 -32 225 -87 317
-179 86 -86 145 -192 172 -305 17 -75 15 -239 -4 -303 -8 -25 -14 -47 -15 -50
0 -3 -7 -16 -15 -30 -7 -14 -13 -27 -12 -30 4 -18 -71 -124 -131 -184 -73 -72
-201 -148 -272 -162 -5 -1 -12 -3 -15 -4 -38 -14 -228 -20 -285 -8 -183 37
-361 172 -441 333 -21 43 -39 82 -41 89 -1 6 -9 37 -17 68 -26 105 -9 313 31
375 8 12 13 23 11 25 -10 10 75 132 135 192 75 74 199 147 277 163 8 1 33 7
55 11 41 9 214 8 250 -1z m-1905 -3692 c119 -39 219 -127 276 -240 41 -84 45
-98 49 -197 9 -174 -72 -328 -223 -425 -29 -19 -62 -36 -73 -38 -10 -2 -24 -7
-29 -10 -38 -23 -206 -27 -280 -7 -149 42 -276 164 -325 312 -23 67 -28 204
-10 269 47 169 178 302 341 344 76 20 202 16 274 -8z m1523 -139 c8 8 133 8
146 0 6 -4 11 -3 11 3 0 7 8 7 25 1 14 -5 25 -6 25 -2 0 8 78 8 86 -1 3 -3 16
-2 28 3 13 4 29 4 36 0 8 -5 22 -4 31 1 11 6 20 5 24 -1 4 -6 15 -6 30 0 17 6
25 6 25 -1 0 -6 5 -7 10 -4 14 9 118 10 126 2 4 -3 15 -2 25 3 11 7 20 7 24 0
4 -6 15 -6 30 0 16 6 25 6 25 0 0 -5 6 -7 14 -4 21 8 106 10 106 2 0 -3 12 -3
28 1 15 4 39 4 55 0 15 -4 27 -4 27 1 0 6 10 6 25 0 15 -6 26 -6 30 1 4 6 13
6 23 0 9 -5 23 -6 32 -1 9 5 22 5 30 0 8 -5 21 -5 31 1 11 6 20 5 24 -1 4 -6
15 -6 30 0 16 6 25 6 25 0 0 -5 6 -7 14 -4 21 8 106 10 106 2 0 -3 12 -3 28 1
15 4 39 4 55 0 15 -4 27 -4 27 1 0 6 10 6 25 0 15 -6 26 -6 30 1 4 6 13 6 23
0 9 -5 23 -6 32 -1 9 5 22 5 30 0 8 -5 21 -5 31 1 11 6 20 5 24 -1 4 -6 15 -6
30 0 16 6 25 6 25 0 0 -5 6 -7 14 -4 21 8 106 10 106 2 0 -3 12 -3 28 1 15 4
39 4 55 0 15 -4 27 -4 27 1 0 6 10 6 25 0 15 -6 26 -6 30 1 4 6 13 6 23 0 9
-5 23 -6 32 -1 9 5 22 5 30 0 8 -5 21 -5 31 1 11 6 20 5 24 -1 4 -6 15 -6 30
0 16 6 25 6 25 0 0 -5 6 -7 14 -4 21 8 106 10 106 2 0 -3 12 -3 28 1 15 4 39
4 55 0 15 -4 27 -4 27 1 0 6 10 6 25 0 15 -6 26 -6 30 1 4 5 11 7 16 4 5 -4
35 -8 67 -10 31 -2 78 -13 105 -25 50 -22 124 -91 145 -134 6 -14 18 -38 25
-53 7 -14 12 -61 11 -107 -1 -96 -24 -155 -88 -220 -57 -57 -123 -86 -210 -92
-39 -3 -77 -5 -83 -5 -7 1 -21 1 -30 1 -10 0 -31 0 -48 1 -28 0 -37 0 -67 -2
-7 0 -22 0 -33 0 -11 1 -46 1 -77 0 -32 0 -62 2 -67 5 -5 4 -12 2 -15 -3 -4
-5 -18 -6 -34 -2 -15 5 -37 5 -48 1 -11 -5 -27 -5 -34 0 -7 4 -26 4 -41 0 -16
-5 -29 -5 -29 0 0 4 -15 5 -32 1 -18 -4 -46 -4 -63 -1 -16 4 -37 3 -46 -1 -8
-4 -21 -4 -28 1 -8 4 -27 4 -42 0 -16 -5 -29 -5 -29 0 0 4 -15 5 -32 1 -18 -4
-46 -4 -63 -1 -16 4 -37 3 -46 -1 -8 -4 -21 -4 -28 1 -8 4 -27 4 -42 0 -16 -5
-29 -5 -29 0 0 4 -15 5 -32 1 -18 -4 -46 -4 -63 -1 -16 4 -37 3 -46 -1 -8 -4
-21 -4 -28 1 -8 4 -27 4 -42 0 -16 -5 -29 -5 -29 -1 0 5 -15 5 -32 2 -18 -4
-48 -4 -65 0 -18 4 -33 3 -33 -1 0 -5 -13 -5 -29 0 -15 4 -34 4 -42 0 -7 -5
-17 -6 -22 -3 -6 3 -35 5 -66 4 -31 -1 -62 -2 -68 -1 -7 0 -21 0 -30 0 -10 0
-31 0 -48 1 -28 0 -37 0 -67 -2 -7 0 -22 0 -33 1 -11 0 -27 0 -35 -1 -8 0 -31
0 -50 0 -19 1 -43 1 -52 1 -36 0 -54 0 -83 1 -28 0 -37 0 -67 -2 -7 0 -22 0
-33 0 -11 1 -46 1 -77 0 -32 0 -62 2 -67 5 -5 4 -12 2 -16 -4 -4 -6 -11 -8
-16 -4 -13 8 -92 9 -104 2 -6 -3 -19 -2 -30 2 -11 4 -30 4 -41 -1 -12 -4 -24
-5 -28 -2 -3 3 -28 7 -55 9 -28 2 -73 15 -100 29 -51 25 -135 97 -126 107 3 3
-1 11 -10 18 -8 7 -15 20 -15 29 0 9 -6 23 -12 29 -8 8 -12 44 -12 100 0 70 5
96 24 136 50 104 151 173 262 181 33 2 63 6 66 9 3 3 10 1 17 -4 7 -5 15 -7
18 -4z m-1573 -1766 c3 -1 10 -3 15 -4 59 -9 173 -73 226 -128 60 -62 115
-163 127 -233 2 -11 5 -56 7 -101 3 -66 -1 -95 -22 -155 -24 -71 -77 -157
-118 -190 -11 -10 -33 -29 -50 -43 -36 -31 -104 -64 -166 -81 -41 -11 -175
-12 -224 -2 -63 13 -85 21 -85 30 0 6 -3 8 -6 4 -9 -9 -95 47 -138 90 -92 91
-139 200 -142 332 -4 184 78 331 237 425 76 46 156 65 254 61 44 -1 82 -4 85
-5z m1586 -150 c16 6 24 6 24 -1 0 -6 5 -7 11 -4 14 9 134 9 148 1 6 -4 11 -4
11 1 0 4 23 8 50 8 28 0 50 -3 50 -7 0 -4 14 -3 30 2 19 5 30 5 30 -1 0 -6 5
-7 11 -3 6 3 39 6 74 6 35 0 68 -3 74 -6 6 -4 11 -4 11 1 0 4 16 8 35 8 19 0
35 -4 35 -8 0 -5 5 -5 11 -1 6 3 39 6 74 6 35 0 68 -3 74 -6 6 -4 11 -4 11 1
0 9 83 8 106 -1 8 -3 14 -1 14 4 0 6 9 6 25 0 14 -5 27 -5 30 0 3 5 18 5 35 0
18 -5 30 -5 30 0 0 6 10 6 25 0 15 -6 27 -6 30 0 3 6 15 6 30 0 15 -6 27 -6
30 0 4 6 13 7 24 1 9 -5 23 -6 30 -1 8 4 27 4 42 0 17 -5 29 -5 29 0 0 6 10 6
25 0 15 -6 27 -6 30 0 3 6 15 6 29 0 13 -5 26 -7 28 -4 7 7 99 10 103 4 2 -4
29 -3 59 0 31 3 56 3 56 -1 0 -4 14 -4 30 1 19 5 30 5 30 -1 0 -6 5 -7 11 -3
6 3 39 6 74 6 35 0 68 -3 74 -6 6 -4 11 -4 11 1 0 4 16 8 35 8 19 0 35 -4 35
-8 0 -5 5 -5 11 -1 6 3 39 6 74 6 35 0 68 -3 74 -6 6 -4 11 -4 11 1 0 9 83 8
106 -1 8 -3 14 -1 14 4 0 6 9 6 25 0 14 -5 27 -5 30 0 3 5 18 5 35 0 18 -5 30
-5 30 0 0 6 10 6 25 0 15 -6 27 -6 30 0 3 6 15 6 30 0 15 -6 27 -6 30 0 4 7
13 6 25 0 13 -7 21 -7 25 0 4 6 10 8 14 6 4 -3 29 -8 55 -11 26 -4 68 -16 92
-26 48 -22 122 -91 142 -133 6 -14 18 -38 25 -53 7 -14 12 -61 11 -107 -1 -96
-24 -155 -88 -220 -55 -55 -121 -85 -202 -91 -37 -3 -70 -8 -75 -11 -5 -3 -9
-1 -9 4 0 6 -14 7 -35 2 -19 -4 -35 -4 -35 0 0 4 -17 4 -37 1 -21 -4 -53 -4
-70 0 -18 3 -33 3 -33 -1 0 -5 -12 -5 -27 -1 -16 4 -40 4 -55 0 -16 -4 -28 -4
-28 1 0 4 -16 4 -35 0 -19 -4 -35 -4 -35 0 0 4 -17 4 -37 1 -21 -4 -53 -4 -70
0 -18 3 -33 3 -33 -1 0 -5 -12 -5 -27 -1 -16 4 -40 4 -55 0 -16 -4 -28 -4 -28
1 0 4 -16 4 -35 0 -19 -4 -35 -4 -35 0 0 4 -17 4 -37 1 -21 -4 -53 -4 -70 0
-18 3 -33 3 -33 -1 0 -5 -12 -5 -27 -1 -16 4 -40 4 -55 0 -16 -4 -28 -4 -28 1
0 4 -16 4 -35 0 -19 -4 -35 -4 -35 0 0 4 -17 4 -37 1 -21 -4 -53 -4 -70 0 -18
3 -33 3 -33 -1 0 -5 -12 -5 -27 -1 -16 4 -40 4 -55 0 -16 -4 -28 -4 -28 1 0 4
-16 4 -35 0 -19 -4 -35 -4 -35 0 0 4 -17 4 -37 1 -21 -4 -53 -4 -70 0 -18 3
-33 3 -33 -1 0 -5 -12 -5 -27 -1 -16 4 -40 4 -55 0 -16 -4 -28 -4 -28 1 0 4
-16 4 -35 0 -19 -4 -35 -4 -35 0 0 4 -17 4 -37 1 -21 -4 -53 -4 -70 0 -18 3
-33 3 -33 -1 0 -5 -12 -5 -27 -1 -16 4 -40 4 -55 0 -16 -4 -28 -4 -28 1 0 4
-16 4 -35 0 -19 -4 -35 -4 -35 0 0 4 -17 4 -37 1 -21 -4 -53 -4 -70 0 -18 3
-33 4 -33 0 0 -7 -109 -5 -117 3 -3 3 -13 1 -22 -4 -10 -5 -23 -5 -31 0 -8 5
-21 5 -30 0 -9 -5 -22 -5 -30 0 -8 5 -21 5 -30 0 -9 -5 -22 -5 -30 0 -7 4 -23
4 -36 0 -12 -5 -24 -6 -28 -3 -3 3 -28 7 -55 9 -89 6 -204 82 -238 157 -7 15
-19 39 -25 54 -8 14 -13 62 -12 107 0 63 5 92 24 130 50 103 151 173 262 181
33 2 63 7 66 10 3 3 10 1 15 -4 6 -6 19 -6 33 -1z"/>
</g>
</svg>
